<svg width="8" height="4" viewBox="0 0 8 4" fill="none" xmlns="http://www.w3.org/2000/svg">
  <path d="M7.30358 0.186209C7.17916 0.0669431 7.01086 0 6.83543 0C6.66 0 6.4917 0.0669431 6.36729 0.186209L3.9834 2.45305L1.63271 0.186209C1.5083 0.0669431 1.33999 0 1.16457 0C0.989137 0 0.820836 0.0669431 0.696421 0.186209C0.634182 0.245738 0.584781 0.316561 0.551069 0.394593C0.517357 0.472626 0.5 0.556323 0.5 0.640857C0.5 0.72539 0.517357 0.809088 0.551069 0.88712C0.584781 0.965153 0.634182 1.03598 0.696421 1.0955L3.51193 3.81059C3.57366 3.8706 3.64711 3.91824 3.72803 3.95075C3.80894 3.98326 3.89574 4 3.9834 4C4.07106 4 4.15785 3.98326 4.23877 3.95075C4.31969 3.91824 4.39313 3.8706 4.45486 3.81059L7.30358 1.0955C7.36582 1.03598 7.41522 0.965153 7.44893 0.88712C7.48264 0.809088 7.5 0.72539 7.5 0.640857C7.5 0.556323 7.48264 0.472626 7.44893 0.394593C7.41522 0.316561 7.36582 0.245738 7.30358 0.186209Z" fill="#848484"/>
</svg>
